<svg width="199" height="198" viewBox="0 0 199 198" fill="none" xmlns="http://www.w3.org/2000/svg">
<circle cx="99.1739" cy="99.1506" r="98.8493" fill="black"/>
<path fill-rule="evenodd" clip-rule="evenodd" d="M133.939 55.5393C134.928 53.9276 135.504 52.9889 136.479 53.7235C146.023 60.9113 149.134 78.4296 142.207 92.2532C140.656 95.3467 138.697 98.0393 136.411 100.371C133.403 98.8008 131.064 96.4561 129.878 93.6836V105.587C129.875 105.589 129.873 105.59 129.871 105.592V93.6836C127.675 98.8167 121.526 102.483 114.498 102.483C107.471 102.483 101.322 98.8167 99.1261 93.6836V113.558C99.1229 113.558 99.1197 113.558 99.1165 113.558V93.6836C96.9204 98.8167 90.7715 102.483 83.7442 102.483C76.7375 102.483 70.604 98.8381 68.3914 93.7287V93.6838L68.3817 93.7063L68.372 93.6836V93.7289C67.2161 96.3981 64.9901 98.6676 62.1287 100.227C59.226 96.0686 57.5306 91.07 57.5306 85.4661C57.5306 74.2477 64.2834 64.6015 73.9658 60.3052C64.6649 56.7987 55.9185 50.9859 55.9185 45.1498C55.9185 38.9919 61.6563 40.1923 68.8242 41.6918C68.9644 41.7212 69.1052 41.7506 69.2464 41.7801C71.1838 32.5437 79.4182 25.6035 89.29 25.6035C100.6 25.6035 109.767 34.7148 109.767 45.953C109.767 53.0634 106.092 59.3138 100.531 62.9527C105.614 64.6493 111.625 65.928 118.714 65.104C128.788 63.933 132.087 58.5567 133.939 55.5393Z" fill="url(#paint0_linear_1241_3877)"/>
<ellipse rx="5.49021" ry="5.49956" transform="matrix(0.998739 0.0501978 -0.0492734 0.998785 81.0128 44.1142)" fill="black"/>
<mask id="mask0_1241_3877" style="mask-type:alpha" maskUnits="userSpaceOnUse" x="44" y="34" width="31" height="70">
<path d="M52.8448 58.6318C51.5597 61.1216 50.6824 63.6705 50.1306 66.2262L57.6789 101.748C58.3268 102.969 58.5144 103.352 57.873 102.661L57.6789 101.748C55.3124 97.2859 46.8047 81.6323 50.1306 66.2262L44.6412 40.3938L64.4374 34.9241C74.7968 42.8869 74.8759 46.6078 73.9507 60.3023C61.9433 63.399 57.1313 50.3268 52.8448 58.6318Z" fill="#C4C4C4"/>
</mask>
<g mask="url(#mask0_1241_3877)">
<path d="M136.486 53.7284C133.686 51.6185 134.176 63.3124 118.722 65.1089C111.633 65.9328 105.621 64.6541 100.538 62.9576C106.1 59.3187 109.774 53.0683 109.774 45.9579C109.774 34.7197 100.607 25.6084 89.2974 25.6084C79.4256 25.6084 71.1913 32.5486 69.2539 41.785C61.8904 40.2469 55.926 38.8764 55.926 45.1547C55.926 50.9908 64.6723 56.8036 73.9732 60.3101C64.2908 64.6064 57.538 74.2526 57.538 85.471C57.538 100.685 70.0341 111.438 85.2605 113.019C106.881 115.265 132.529 111.586 142.214 92.2581C149.142 78.4345 146.03 60.9162 136.486 53.7284Z" fill="#FF8A00"/>
</g>
<circle cx="82.7832" cy="42.7239" r="1.55668" fill="white"/>
<path fill-rule="evenodd" clip-rule="evenodd" d="M68.3607 86.1152V86.1577C66.1491 91.2687 60.0146 94.9151 53.0065 94.9151C45.9792 94.9151 39.8303 91.2487 37.6343 86.1156V93.6927C39.8314 98.8242 45.9793 102.489 53.0052 102.489C60.0132 102.489 66.1476 98.8429 68.3593 93.7321V93.6897L68.3684 93.7109L68.3775 93.6897V93.732C70.5892 98.8429 76.7235 102.489 83.7315 102.489C90.7588 102.489 96.9077 98.8227 99.1037 93.6897V130.113H99.1051V86.1152C96.9091 91.2483 90.7602 94.9147 83.7329 94.9147C76.7248 94.9147 70.5903 91.2683 68.3788 86.1573V86.1156L68.3698 86.1365L68.3607 86.1152ZM99.1173 93.693V86.1152C101.313 91.2483 107.462 94.9147 114.49 94.9147C121.517 94.9147 127.666 91.2483 129.862 86.1152V130.113H129.86V93.6897C127.664 98.8227 121.515 102.489 114.488 102.489C107.462 102.489 101.315 98.8243 99.1173 93.693ZM129.868 93.6928C132.065 98.8242 138.213 102.489 145.239 102.489C152.266 102.489 158.415 98.8227 160.611 93.6897V130.113H160.612V86.1152C158.416 91.2483 152.267 94.9147 145.24 94.9147C138.213 94.9147 132.064 91.2483 129.868 86.1152V93.6928Z" fill="url(#paint1_linear_1241_3877)"/>
<path d="M70.4347 154.724H56.6196V149.342H59.9485V140.631C59.9485 138.486 59.5602 136.951 58.7834 136.026C58.0437 135.101 56.971 134.639 55.5654 134.639C53.938 134.639 52.6619 135.138 51.7372 136.137C50.8495 137.136 50.3686 138.449 50.2946 140.076V149.342H53.6236V154.724H39.8085V149.342H43.1374V121.989H39.8085V116.552H50.2946V133.529C51.9591 130.644 54.6407 129.202 58.3396 129.202C60.7068 129.202 62.7596 129.905 64.4981 131.31C66.2365 132.716 67.1058 134.898 67.1058 137.857V149.342H70.4347V154.724ZM102.839 154.724H92.0758V150.895C90.4113 153.78 87.7297 155.223 84.0309 155.223C81.6636 155.223 79.6108 154.52 77.8723 153.115C76.1339 151.709 75.2647 149.527 75.2647 146.568V135.083H71.9357V129.701H82.4219V143.794C82.4219 145.976 82.7733 147.529 83.476 148.454C84.2158 149.342 85.2885 149.786 86.694 149.786C88.3955 149.786 89.7085 149.231 90.6333 148.121C91.5949 147.012 92.0758 145.588 92.0758 143.849V135.083H88.0256V129.701H99.233V149.342H102.839V154.724ZM133.02 141.63C133.02 145.329 132.039 148.528 130.079 151.228C128.156 153.928 125.307 155.278 121.535 155.278C117.725 155.278 115.043 153.836 113.49 150.951C113.416 151.58 113.323 152.208 113.212 152.837C113.138 153.466 113.046 154.095 112.935 154.724H105.778C106.037 153.429 106.259 152.134 106.444 150.84C106.628 149.545 106.721 148.269 106.721 147.012V121.989H103.392V116.552H113.878V134.473C114.544 133.03 115.543 131.791 116.874 130.755C118.243 129.72 120.055 129.202 122.311 129.202C125.455 129.202 128.026 130.293 130.023 132.475C132.021 134.658 133.02 137.709 133.02 141.63ZM125.585 142.24C125.585 139.836 125.067 138.005 124.031 136.747C122.996 135.49 121.627 134.861 119.926 134.861C118.002 134.861 116.504 135.564 115.432 136.969C114.396 138.375 113.878 140.002 113.878 141.852V142.462C113.878 144.496 114.377 146.216 115.376 147.622C116.412 148.99 117.873 149.675 119.759 149.675C121.387 149.675 122.755 149.083 123.865 147.899C125.012 146.679 125.585 144.792 125.585 142.24ZM158.307 147.067C158.307 149.841 157.198 151.913 154.978 153.281C152.796 154.613 149.948 155.278 146.434 155.278C144.622 155.278 142.791 155.094 140.941 154.724C139.129 154.317 137.39 153.688 135.726 152.837L136.725 145.846L142.273 146.457V149.564C142.939 149.786 143.641 149.934 144.381 150.008C145.121 150.045 145.676 150.063 146.046 150.063C147.414 150.063 148.598 149.841 149.597 149.397C150.595 148.953 151.095 148.288 151.095 147.4C151.095 146.327 150.336 145.625 148.82 145.292C147.303 144.959 145.546 144.626 143.549 144.293C141.552 143.96 139.795 143.276 138.278 142.24C136.762 141.204 136.003 139.448 136.003 136.969C136.003 133.899 137.187 131.846 139.554 130.811C141.959 129.738 144.437 129.202 146.989 129.202C150.318 129.202 153.443 129.96 156.365 131.477L156.976 137.857L151.427 138.467L150.984 134.972C149.763 134.565 148.45 134.362 147.044 134.362C146.12 134.362 145.324 134.565 144.659 134.972C144.03 135.342 143.715 135.934 143.715 136.747C143.715 137.82 144.437 138.541 145.879 138.911C147.359 139.244 149.06 139.577 150.984 139.91C152.944 140.243 154.645 140.927 156.088 141.963C157.568 142.961 158.307 144.663 158.307 147.067Z" fill="white"/>
<defs>
<linearGradient id="paint0_linear_1241_3877" x1="100.937" y1="25.6035" x2="100.937" y2="126.27" gradientUnits="userSpaceOnUse">
<stop stop-color="#FFC000"/>
<stop offset="1" stop-color="#FFD600"/>
</linearGradient>
<linearGradient id="paint1_linear_1241_3877" x1="103.793" y1="665.938" x2="47.9439" y2="0.77175" gradientUnits="userSpaceOnUse">
<stop stop-color="#2F80ED"/>
<stop offset="0.508287" stop-color="#2F80ED"/>
<stop offset="1" stop-color="#2F80ED"/>
</linearGradient>
</defs>
</svg>
