<svg width="198" height="198" viewBox="0 0 198 198" fill="none" xmlns="http://www.w3.org/2000/svg">
<circle cx="98.8493" cy="98.8493" r="98.8493" fill="white"/>
<path fill-rule="evenodd" clip-rule="evenodd" d="M133.614 55.238C134.603 53.6263 135.179 52.6876 136.154 53.4222C145.698 60.61 148.81 78.1284 141.882 91.952C140.332 95.0455 138.373 97.7381 136.087 100.07C133.079 98.4996 130.739 96.155 129.553 93.3825V105.286C129.551 105.287 129.548 105.289 129.546 105.29V93.3825C127.35 98.5156 121.201 102.182 114.174 102.182C107.147 102.182 100.998 98.5156 98.8016 93.3825V113.257C98.7984 113.257 98.7951 113.257 98.7919 113.257V93.3825C96.5959 98.5156 90.447 102.182 83.4197 102.182C76.4128 102.182 70.2793 98.5369 68.0667 93.4273V93.3825L68.0571 93.405L68.0474 93.3825V93.4273C66.8916 96.0966 64.6656 98.3663 61.8041 99.9253C58.9014 95.7673 57.206 90.7687 57.206 85.1649C57.206 73.9464 63.9588 64.3003 73.6412 60.004C64.3403 56.4974 55.5939 50.6847 55.5939 44.8485C55.5939 38.6907 61.3317 39.891 68.4996 41.3906C68.6398 41.4199 68.7806 41.4493 68.9219 41.4789C70.8593 32.2424 79.0936 25.3022 88.9654 25.3022C100.275 25.3022 109.442 34.4135 109.442 45.6518C109.442 52.7621 105.768 59.0125 100.206 62.6514C105.289 64.348 111.301 65.6267 118.39 64.8027C128.463 63.6317 131.763 58.2555 133.614 55.238Z" fill="url(#paint0_linear_1241_3908)"/>
<ellipse rx="5.49021" ry="5.49956" transform="matrix(0.998739 0.0501978 -0.0492734 0.998785 80.6882 43.8132)" fill="black"/>
<mask id="mask0_1241_3908" style="mask-type:alpha" maskUnits="userSpaceOnUse" x="44" y="34" width="30" height="69">
<path d="M52.5203 58.3308C51.2352 60.8206 50.3578 63.3695 49.8061 65.9252L57.3544 101.447C58.0022 102.668 58.1899 103.051 57.5485 102.36L57.3544 101.447C54.9879 96.9849 46.4802 81.3313 49.8061 65.9252L44.3167 40.0928L64.1129 34.623C74.4722 42.5859 74.5514 46.3067 73.6261 60.0013C61.6187 63.0979 56.8068 50.0258 52.5203 58.3308Z" fill="#C4C4C4"/>
</mask>
<g mask="url(#mask0_1241_3908)">
<path d="M136.162 53.4271C133.361 51.3172 133.852 63.0111 118.397 64.8076C111.308 65.6316 105.297 64.3529 100.214 62.6563C105.775 59.0174 109.449 52.767 109.449 45.6567C109.449 34.4184 100.283 25.3071 88.9728 25.3071C79.101 25.3071 70.8666 32.2473 68.9292 41.4837C61.5657 39.9457 55.6013 38.5751 55.6013 44.8534C55.6013 50.6896 64.3477 56.5023 73.6486 60.0089C63.9662 64.3051 57.2134 73.9513 57.2134 85.1698C57.2134 100.384 69.7095 111.137 84.9358 112.718C106.556 114.964 132.204 111.284 141.889 91.9568C148.817 78.1332 145.705 60.6149 136.162 53.4271Z" fill="#FF8A00"/>
</g>
<circle cx="82.4586" cy="42.4229" r="1.55668" fill="white"/>
<path fill-rule="evenodd" clip-rule="evenodd" d="M68.036 85.8142V85.8566C65.8244 90.9675 59.69 94.6139 52.6819 94.6139C45.6546 94.6139 39.5057 90.9475 37.3097 85.8144V93.3915C39.5068 98.523 45.6547 102.188 52.6807 102.188C59.6888 102.188 65.8232 98.5416 68.0348 93.4307V93.3885L68.0439 93.4096L68.0529 93.3885V93.4306C70.2645 98.5416 76.399 102.188 83.4071 102.188C90.4344 102.188 96.5833 98.5215 98.7793 93.3885V129.812H98.7805V85.8142C96.5845 90.9472 90.4356 94.6137 83.4083 94.6137C76.4002 94.6137 70.2658 90.9673 68.0542 85.8564V85.8144L68.0451 85.8355L68.036 85.8142ZM98.7927 93.3915V85.8142C100.989 90.9472 107.138 94.6137 114.165 94.6137C121.192 94.6137 127.341 90.9472 129.537 85.8142V129.812H129.536V93.3885C127.34 98.5215 121.191 102.188 114.164 102.188C107.138 102.188 100.99 98.523 98.7927 93.3915ZM129.543 93.3915C131.74 98.523 137.888 102.188 144.914 102.188C151.941 102.188 158.09 98.5215 160.286 93.3885V129.812H160.288V85.8142C158.092 90.9472 151.943 94.6137 144.915 94.6137C137.888 94.6137 131.739 90.9472 129.543 85.8142V93.3915Z" fill="url(#paint1_linear_1241_3908)"/>
<path d="M70.1102 154.422H56.2951V149.041H59.624V140.33C59.624 138.185 59.2356 136.65 58.4589 135.725C57.7191 134.8 56.6465 134.338 55.2409 134.338C53.6134 134.338 52.3374 134.837 51.4126 135.836C50.5249 136.834 50.0441 138.148 49.9701 139.775V149.041H53.299V154.422H39.484V149.041H42.8129V121.688H39.484V116.251H49.9701V133.228C51.6346 130.343 54.3162 128.901 58.015 128.901C60.3823 128.901 62.4351 129.603 64.1736 131.009C65.912 132.414 66.7812 134.597 66.7812 137.556V149.041H70.1102V154.422ZM102.515 154.422H91.7513V150.594C90.0868 153.479 87.4052 154.922 83.7063 154.922C81.3391 154.922 79.2863 154.219 77.5478 152.813C75.8094 151.408 74.9402 149.226 74.9402 146.266V134.782H71.6112V129.4H82.0974V143.492C82.0974 145.675 82.4487 147.228 83.1515 148.153C83.8913 149.041 84.9639 149.484 86.3695 149.484C88.0709 149.484 89.384 148.93 90.3087 147.82C91.2704 146.71 91.7513 145.286 91.7513 143.548V134.782H87.7011V129.4H98.9085V149.041H102.515V154.422ZM132.695 141.329C132.695 145.027 131.715 148.227 129.754 150.927C127.831 153.627 124.983 154.977 121.21 154.977C117.4 154.977 114.719 153.535 113.165 150.65C113.091 151.278 112.999 151.907 112.888 152.536C112.814 153.165 112.721 153.794 112.61 154.422H105.453C105.712 153.128 105.934 151.833 106.119 150.539C106.304 149.244 106.396 147.968 106.396 146.71V121.688H103.067V116.251H113.554V134.171C114.219 132.729 115.218 131.49 116.55 130.454C117.918 129.418 119.731 128.901 121.987 128.901C125.131 128.901 127.702 129.992 129.699 132.174C131.696 134.356 132.695 137.408 132.695 141.329ZM125.26 141.939C125.26 139.535 124.743 137.704 123.707 136.446C122.671 135.189 121.303 134.56 119.601 134.56C117.678 134.56 116.18 135.262 115.107 136.668C114.071 138.074 113.554 139.701 113.554 141.55V142.161C113.554 144.195 114.053 145.915 115.052 147.321C116.087 148.689 117.548 149.373 119.435 149.373C121.062 149.373 122.431 148.782 123.54 147.598C124.687 146.377 125.26 144.491 125.26 141.939ZM157.983 146.766C157.983 149.54 156.873 151.611 154.654 152.98C152.472 154.311 149.623 154.977 146.11 154.977C144.297 154.977 142.466 154.792 140.617 154.422C138.804 154.015 137.066 153.387 135.401 152.536L136.4 145.545L141.948 146.156V149.263C142.614 149.484 143.317 149.632 144.057 149.706C144.796 149.743 145.351 149.762 145.721 149.762C147.09 149.762 148.273 149.54 149.272 149.096C150.271 148.652 150.77 147.986 150.77 147.099C150.77 146.026 150.012 145.323 148.495 144.99C146.979 144.657 145.222 144.325 143.224 143.992C141.227 143.659 139.47 142.975 137.954 141.939C136.437 140.903 135.679 139.146 135.679 136.668C135.679 133.598 136.863 131.545 139.23 130.51C141.634 129.437 144.112 128.901 146.664 128.901C149.993 128.901 153.119 129.659 156.041 131.175L156.651 137.556L151.103 138.166L150.659 134.671C149.438 134.264 148.125 134.06 146.72 134.06C145.795 134.06 145 134.264 144.334 134.671C143.705 135.041 143.391 135.632 143.391 136.446C143.391 137.519 144.112 138.24 145.555 138.61C147.034 138.943 148.736 139.276 150.659 139.609C152.619 139.941 154.321 140.626 155.763 141.661C157.243 142.66 157.983 144.362 157.983 146.766Z" fill="black"/>
<defs>
<linearGradient id="paint0_linear_1241_3908" x1="100.613" y1="25.3022" x2="100.613" y2="125.969" gradientUnits="userSpaceOnUse">
<stop stop-color="#FFC000"/>
<stop offset="1" stop-color="#FFD600"/>
</linearGradient>
<linearGradient id="paint1_linear_1241_3908" x1="103.469" y1="665.637" x2="47.6194" y2="0.470739" gradientUnits="userSpaceOnUse">
<stop stop-color="#2F80ED"/>
<stop offset="0.508287" stop-color="#2F80ED"/>
<stop offset="1" stop-color="#2F80ED"/>
</linearGradient>
</defs>
</svg>
